<svg width="17" height="17" viewBox="0 0 17 17" fill="none" xmlns="http://www.w3.org/2000/svg">
<path d="M8.49992 6.12492C7.87003 6.12492 7.26594 6.37514 6.82054 6.82054C6.37514 7.26594 6.12492 7.87003 6.12492 8.49992C6.12492 9.12981 6.37514 9.7339 6.82054 10.1793C7.26594 10.6247 7.87003 10.8749 8.49992 10.8749C9.12981 10.8749 9.7339 10.6247 10.1793 10.1793C10.6247 9.7339 10.8749 9.12981 10.8749 8.49992C10.8749 7.87003 10.6247 7.26594 10.1793 6.82054C9.7339 6.37514 9.12981 6.12492 8.49992 6.12492ZM8.49992 4.54159C9.54974 4.54159 10.5566 4.95862 11.2989 5.70095C12.0412 6.44329 12.4583 7.4501 12.4583 8.49992C12.4583 9.54974 12.0412 10.5566 11.2989 11.2989C10.5566 12.0412 9.54974 12.4583 8.49992 12.4583C7.4501 12.4583 6.44329 12.0412 5.70095 11.2989C4.95862 10.5566 4.54159 9.54974 4.54159 8.49992C4.54159 7.4501 4.95862 6.44329 5.70095 5.70095C6.44329 4.95862 7.4501 4.54159 8.49992 4.54159ZM13.6458 4.34367C13.6458 4.60612 13.5415 4.85783 13.3559 5.04341C13.1703 5.22899 12.9186 5.33325 12.6562 5.33325C12.3937 5.33325 12.142 5.22899 11.9564 5.04341C11.7708 4.85783 11.6666 4.60612 11.6666 4.34367C11.6666 4.08122 11.7708 3.82951 11.9564 3.64393C12.142 3.45834 12.3937 3.35409 12.6562 3.35409C12.9186 3.35409 13.1703 3.45834 13.3559 3.64393C13.5415 3.82951 13.6458 4.08122 13.6458 4.34367ZM8.49992 2.16659C6.54134 2.16659 6.2215 2.17213 5.31029 2.2125C4.68963 2.24179 4.27321 2.32492 3.88688 2.47534C3.54329 2.60834 3.2955 2.76746 3.03188 3.03188C2.78409 3.27128 2.59357 3.56355 2.47454 3.88688C2.32413 4.27479 2.241 4.69042 2.2125 5.31029C2.17134 6.18429 2.16659 6.48988 2.16659 8.49992C2.16659 10.4585 2.17213 10.7783 2.2125 11.6895C2.24179 12.3094 2.32492 12.7266 2.47454 13.1122C2.60913 13.4565 2.76746 13.7043 3.03029 13.9672C3.29709 14.2332 3.54488 14.3923 3.88529 14.5237C4.27638 14.6749 4.69279 14.7588 5.31029 14.7873C6.18429 14.8285 6.48988 14.8333 8.49992 14.8333C10.4585 14.8333 10.7783 14.8277 11.6895 14.7873C12.3086 14.758 12.7258 14.6749 13.1122 14.5253C13.455 14.3915 13.7043 14.2324 13.9672 13.9695C14.234 13.7028 14.3931 13.455 14.5245 13.1145C14.6749 12.7243 14.7588 12.307 14.7873 11.6895C14.8285 10.8155 14.8333 10.51 14.8333 8.49992C14.8333 6.54134 14.8277 6.2215 14.7873 5.31029C14.758 4.69121 14.6749 4.27321 14.5245 3.88688C14.4052 3.56388 14.215 3.27172 13.968 3.03188C13.7287 2.78396 13.4364 2.59343 13.113 2.47454C12.725 2.32413 12.3086 2.241 11.6895 2.2125C10.8155 2.17134 10.51 2.16659 8.49992 2.16659ZM8.49992 0.583252C10.6509 0.583252 10.9193 0.591169 11.7632 0.630752C12.6063 0.670335 13.1803 0.802544 13.6853 0.998877C14.2078 1.19996 14.648 1.47229 15.0882 1.91167C15.4907 2.30742 15.8022 2.78613 16.001 3.3145C16.1965 3.81879 16.3295 4.39354 16.3691 5.23667C16.4063 6.08059 16.4166 6.34896 16.4166 8.49992C16.4166 10.6509 16.4087 10.9193 16.3691 11.7632C16.3295 12.6063 16.1965 13.1803 16.001 13.6853C15.8028 14.214 15.4912 14.6928 15.0882 15.0882C14.6923 15.4906 14.2136 15.8021 13.6853 16.001C13.181 16.1965 12.6063 16.3295 11.7632 16.3691C10.9193 16.4063 10.6509 16.4166 8.49992 16.4166C6.34896 16.4166 6.08059 16.4087 5.23667 16.3691C4.39354 16.3295 3.81959 16.1965 3.3145 16.001C2.78593 15.8026 2.30713 15.4911 1.91167 15.0882C1.50903 14.6925 1.19753 14.2137 0.998877 13.6853C0.802544 13.181 0.670335 12.6063 0.630752 11.7632C0.593544 10.9193 0.583252 10.6509 0.583252 8.49992C0.583252 6.34896 0.591169 6.08059 0.630752 5.23667C0.670335 4.39275 0.802544 3.81959 0.998877 3.3145C1.19698 2.78581 1.50855 2.30696 1.91167 1.91167C2.30724 1.50889 2.78601 1.19737 3.3145 0.998877C3.81959 0.802544 4.39275 0.670335 5.23667 0.630752C6.08059 0.593544 6.34896 0.583252 8.49992 0.583252Z" fill="#E0BEA2"/>
</svg>
