<svg width="17" height="17" viewBox="0 0 17 17" fill="none" xmlns="http://www.w3.org/2000/svg">
<path d="M8.50016 14.8335C10.1799 14.8335 11.7908 14.1662 12.9785 12.9785C14.1662 11.7908 14.8335 10.1799 14.8335 8.50016C14.8335 6.82046 14.1662 5.20955 12.9785 4.02182C11.7908 2.83409 10.1799 2.16683 8.50016 2.16683C6.82046 2.16683 5.20955 2.83409 4.02182 4.02182C2.83409 5.20955 2.16683 6.82046 2.16683 8.50016C2.16683 10.1799 2.83409 11.7908 4.02182 12.9785C5.20955 14.1662 6.82046 14.8335 8.50016 14.8335ZM8.50016 16.4168C4.12779 16.4168 0.583496 12.8725 0.583496 8.50016C0.583496 4.12779 4.12779 0.583496 8.50016 0.583496C12.8725 0.583496 16.4168 4.12779 16.4168 8.50016C16.4168 12.8725 12.8725 16.4168 8.50016 16.4168ZM6.03808 9.42641L4.0605 8.8097C3.633 8.67908 3.63062 8.38458 4.15629 8.1732L11.8616 5.19654C12.3089 5.01446 12.5622 5.24483 12.4173 5.82195L11.1055 12.0128C11.0137 12.4537 10.7485 12.559 10.3804 12.3556L8.36083 10.8609L7.41954 11.7697C7.32296 11.8632 7.24458 11.9431 7.09575 11.9629C6.9477 11.9835 6.82579 11.9392 6.73633 11.6937L6.04758 9.42087L6.03808 9.42641Z" fill="#E0BEA2"/>
</svg>
